# xmcd
#
# Track frame offsets:
#	150
#	14940
#	29975
#	47642
#	61225
#	73025
#	85962
#	95782
#	110947
#	123172
#
# Disc length: 1804
#
# Revision: 3
# Processed by: cddbd v1.5.1PL0 Copyright (c) Steve Scherf et al.
# Submitted via: audiograbber 1.80
# Normalized: r2:DSETVAR1
#
DISCID=99070a0a
DTITLE=Various Artist - Greatest Country Hits Of The 80's
DYEAR=1900
DGENRE=
TTITLE0=Rodney Crowell - She's Crazy For Leaving
TTITLE1=Willie Nelson - Nothing I Can Do About It Now
TTITLE2=Dolly Parton - Yellow Roses
TTITLE3=Shenandoah - The Church On Cumberland Road
TTITLE4=I Don't Want To Spoil The Party - Rosanne Cash
TTITLE5=Vern Gosdin - Who You Gonna Blame It On This Time
TTITLE6=Mary-Chapin Carpenter - How Do
TTITLE7=Ricky Van Shelton - Living Proof
TTITLE8=Ricky Skaggs - Let It Be You
TTITLE9=Merle Haggard - A Better Love Next Time
EXTD=
EXTT0=
EXTT1=
EXTT2=
EXTT3=
EXTT4=
EXTT5=
EXTT6=
EXTT7=
EXTT8=
EXTT9=
PLAYORDER=
